<svg xmlns="http://www.w3.org/2000/svg" viewBox="0 0 1423.89 907.38"><defs><style>.cls-1{opacity:0.85;}.cls-2{fill:#f98a8a;}</style></defs><g id="Layer_2" data-name="Layer 2"><g id="OBJECTS"><g class="cls-1"><path class="cls-2" d="M226.66,1.73l.34-.1.06-.21Z"/><path class="cls-2" d="M1224.57,85.36a10.07,10.07,0,0,0-1.23,3.64A4.74,4.74,0,0,0,1224.57,85.36Z"/><path class="cls-2" d="M35.67,213.7l.15-.11c0-.05,0-.1,0-.15Z"/><path class="cls-2" d="M26.72,268.65l-.44-.1.12.33Z"/><path class="cls-2" d="M57.3,336.61c0-.05,0-.1,0-.15-.11.13-.23.25-.34.4Z"/><path class="cls-2" d="M1417.8,596.21c-6.73-.57-12.62-4.08-17.48-8.05-3.54-2.87-6.08-5.82-10.93-4.8-2.28.48-4.08-1.16-3.66-2.87,1.92-7.69-2.49-6.94-7.11-6-1.89.38-4.14.71-4.9-1.09-2.3-5.36-6.69-5.83-13.49-4.61,6.22-7.45,11.71-1.19,16.34-3.09,5.59-2.3,9,7.87,16.17,2.27-4.09-2.82-6.76-5.72-11.48-6.41-8-1.18-9.45-3.67-7.13-11.33,1.29-4.26-.14-7.09-2-10.36-.89-1.53-2.7-4.45,1-5.1,4.69-.82,3.81-2.9,1.16-4.69-2.81-1.88-2.6-5.13-4.12-7.41-1.82-2.73-3.61-3.66.77-6.35s-1.59-5.36-1.75-8.48c-.24-4.59,7.07-2.94,5.75-8a27.45,27.45,0,0,0-1.35-4.11c-1.22-2.66-3.15-5.12-3.76-7.92-.89-4.17-1.87-6.11-6.94-5.58-5.61.6-13,2.32-14.3-7.21-.34-2.45-2.17-1.38-3.25-.48-1.85,1.53-3.25.59-4.91-.22-2.25-1.09-5.36-1.24-6.82-3-2.31-2.73-5.69-.67-7.91-2.78-3.66-3.47-2.7,2.38-4.45,2.53-4.25.35-2.65-4.75-5.12-6.12-.31-.17-.87-.45-1-.34-6.13,6-8.21.75-10.73-3.75-.24-.41-2.07-.23-2.94.19-1.84.88-3.93,1.29-5-.38-5.35-8.57-13.08-8.2-21.42-6.19-1.56.37-3.6-.62-2.59-2.11,3.41-5,.07-6-3.28-7.9-3.19-1.78.71-7.09-4-9.3-3.68-1.71-5.36-7.81-9.76-8.08a16.92,16.92,0,0,1-11.47-4.94c-.22-.22-.44-.42-.65-.6,5.56.33,11.13.87,16.7,1.73,16.92,2.61,34,.48,51-1.46,3.34-.38,7.47-1.57,6.76-5.89-.63-3.77-3-7.3-8-7-1.45.08-2.92.34-4.37.28-9.68-.42-19.36-.7-29-1.48-3.46-.28-7.46-1-8.39-6.14,6.33-1.87,12.08-1.43,17.88-1.21,10.09.37,20.21.62,30.29.24,4.74-.17,10.69-1.11,10.41-7.71-.24-5.67-.46-13.11-6-15.64-8.9-4-14.59-11-21-17.54-11.13-11.32-30.76-9.64-39.08-25.59-1.33-2.57-5.43-1.64-8.27-1.67-6.08-.09-7.82-4.92-6.66-8.63s9.12-3.95,9.62-2.42c2.85,8.54,7.39,3.53,11.24,2.08,5.45-2,10.66-4.75,16.09-6.83,3.34-1.28,6.81-2.55,6.87-6.54.06-3.31-3.84-4-5.78-6-3.18-3.33-7-2.55-10.89-2.54-2.49,0-5.86,1.14-7.25-4.06,10.33-.19,19.57-3.41,28.21-8.2-.53-1.36-1.5-2.7-1.52-4.07-.19-10.67,1.11-21.87-11.38-27.48a2.41,2.41,0,0,1-.84-2.22c5.18-9.58-3.55-9.91-8.45-12.41-3-1.51-6.53-1.86-9.72-3.05-2.56-1-11-13.48-9.91-14.59,3.62-3.69,6.73-8.41,13.1-7.68,8.35,1,13.66-4.74,19.63-8-1.35-6.84-8.5-2.55-10.41-7.19,9.76-4.69,19.2-9.92,30.53-7.2,1.37.33,3-.12,4.19.49,4.62,2.42,9.08,1.36,11.92-2.11,3.38-4.13-.17-9.3-2.37-11.94-9.8-11.78-19.27-24.37-35.24-28.72-3.11-.85-7-3.89-8.88.65-2.08,5,5.18,3.07,6,6.37a10.81,10.81,0,0,1,0,2.55c-5.64.44-13.51-1-13.51-5.4,0-8.78-4.06-6.66-9-6.2a7.08,7.08,0,0,1-5.16-2.19c-5.59-6.36-13-9.28-21.26-10.6,2.52-5.13,7.49-1.94,10-4.7-.63-4.22-4.63-6.26-6.23-9.66-2-4.27,6.44-6.18,3.18-11.46-10.3-4.92-20.5-10.46-32-12.88-5.18-1.08-5.51-3.8-3-8.49,3.91-7.19,9.52-5,15.16-4.1.2-2.73,2-4.46,4.34-3.58a2.52,2.52,0,0,1,1.79,1.87c2.84-4.9,9.46-5.32,13.26-8.91,5.16-4.85,2.38-13.94,7.37-19.74,2.14-2.48,7.12-1.37,7.32-6,.15-3.06-5.38-4-3.9-7.44,4.16-2.16,7.81,3.37,11.53-.71-3.6-3.34-7.48-3.85-11.16-4.17a7.18,7.18,0,0,1-5.92-3.44c-1.28-1.92-4-3.35-2.88-6.14s3.89-2.11,6.26-2.29c4-.31,9.69,4.48,11.77-.86,2-5.05,8.48-4.26,10.09-10.63-21.66-5.72-43.51-9.62-65.45-13.57H239.75c-1.72,4.09-3,1.77-4.31,0C234.87.65,234.3,0,233.69,0a22.5,22.5,0,0,0-6,1.42l-.71.21c-2.24,6.93-2.74,13.53,1.71,19.13A55.71,55.71,0,0,0,227,26.2c-3.86.49-4.9-.95-8.51-6.08C211.23,9.88,208.08,9,196,14.22c3.38,2.5,6.3,4.89,9.45,6.91,2.41,1.55,3.8,3.2,1.56,5.66-1.71,1.86-4.38,3.17-6.46,1.36-3.65-3.17-7.71-6.47-9.83-10.62-2.2-4.32-4.41-5.3-9.15-6.56-13.27-3.54-26.93,4.51-40-2.52-3.11-1.67-6.16,1.86-6.47,5.93-.23,3,3.26,6.27-.42,9.12-10.29-3.6-10.29-3.6-17-12.15.72,3.56-11.1,6.69.59,10.85a2.8,2.8,0,0,1-.47,5.39c-4.15.55-11.15,9.56-12.36-3-.16-1.59-2.21-2.78-3.17-2-5.61,4.7-6.62-1-9.5-3.52-2.43-2.15-6.64-3.88-8.85.05-2,3.55-1.15,7.78,3.39,9.38,2,.7,4.85-.91,5.46,3.16C89,35.6,82.24,34.27,78.5,39.37c-2,2.69-6.51,2.28-7.73-2.46-1.44-5.6-3.85-9.76-10.94-9.2-.27,4.85-.29,9.47-4.2,13.24-4.31,4.16-1,10.43-3.12,15.33-.34.79-1.66,1.95-2,1.8-6.33-2.72-8.82,6-15.47,4.62-6.35-1.34-12,3.85-16.74,7.64-3.46,2.79.07,8.15.48,12.31.68,7,1.31,13-6.8,17-7.28,3.57-6,9-.27,13.78a2.19,2.19,0,0,1,.18,3.5c-3.45,2.21-6.15-.9-9.25-1.35a4.61,4.61,0,0,0-1.84.1c-1.89,4.27,0,8,1.84,11.52,1.53,3,3,6,1.87,9.15-2.56,7.39,5.31,9.6,5.5,15.29.27,8,6.84,9.63,12.69,12A5.15,5.15,0,0,1,25.92,168c-7.09,2.64-14.35,1.92-22.26-.26,1.09,5.73,5.85,7.87,5.85,12.9,0,11.38,8.34,15.57,17.67,18.22,3.24.92,6.72,1,10.08,1.47,2.94.4,6.15.79,6.69,4.38.51,3.39-2,5.12-4.72,6.53a25.59,25.59,0,0,0-3.41,2.4c-3.72,11.91-.63,20.55,11.93,24.67,1.87.61,3.86,1.33,3.24,3.87s-1.87,4.52-4.6,5.1c-3,.65-5.7-1.19-8.48-1.38-7.09-.52-5.41-9.32-12.95-12.95,4.52,11.58,1.35,22.51,10.68,30.58,3.85,3.33,4.81,10,7,15l-.25.14A8.48,8.48,0,0,0,40,277.36c-1.56-.45-3,.48-4.57,1.42-2.5-.95-5-2.17-8.08-.76.18.2.36.39.53.59-3.8-3-9-1.53-13.2-3.29.45-2.91-.17-6.06,1.48-9.09l10.16,2.32c-3.22-8.86-3.51-9.28-11.41-5.7-4.27,1.93-8-3.17-12.25-.06v55.44A18.38,18.38,0,0,0,7.09,315c3.92-3.31,8.26-5.73,13.59-5.38a8.31,8.31,0,0,0,6.76-2.54c4-3.69,7.54-2.09,7.73,3.18.18,4.76-.55,9.58-.92,14.37-.19,2.54,1.31,3.27,3.3,3.18,1.3,0,3.16-.07,2.73-2.3-.3-1.59-2.94-2.44-.92-5.32l22.75,7.69c-8.31-.26-4.2,5.58-4.79,8.55,2.47-3,5.42-4.32,9.23-2.69,5,2.15,10.13,5.09,13.14-3.28.31-.87,3.57-1.5,5-1,5.45,1.82,10.53,4.79,16.68,4.11.72-.08,2.24,2.1,2.34,3.34.29,3.53.34,6.61,5.26,5.07.55-.17,2.33,1.91,2.51,3.14.39,2.61-1.91,2.84-3.66,3-5.16.44-10.41.23-14.18-3.72-2.21-2.33-3.15-2.25-6.06-.73-5,2.62-9.87,6.22-16.32.62-5-4.38-18.39.94-20.05,7.38a12.42,12.42,0,0,1-4.3,6.87c-.74.67-2.26,2.91,0,3.17,1,.13,2.45-2.9,3.65.27.6,1.57-1.19,4.11,1.24,4.75,1.67.45,2-3.27,4.27-2.42,1.52.56,2.09,1.68,1.9,3.45s-4,3.21.17,6.61c1.85-4.08,4.9-6.8,9.68-5.93,2.94.54,4.73,3.17,7.83,3.49a16.41,16.41,0,0,1,7,2.63c4,2.63,3-5.47,5.8-3,3,2.54,7,2.27,10.74,2.81-1.23,3.78-.12,8.37,3.46,12.45,4.31,4.91,10.52,4.54,16.85,8.23-8.63,3.78-4,12-7.2,17.54a9.34,9.34,0,0,1-3,.69c-3.07-.46-7.82-4.12-8.66.52-1,5.73-6.88,9.39-5.91,15.54-2.58-.49-5.2-.85-7.37-2.05-3-1.67-5.19,1.84-3.06,5.67,1.35,2.42-.46,2.44-1.35,2.77-2.42.9-4.4,1.41-4.83,5a4.9,4.9,0,0,0,0,.68c-3-.34-6-.72-9-1.18-18.38-2.86-26.27,8.62-38.22,16.47,5.89,5.79,12.47.83,17.44,4.11-.6,2.75-2.78,3-4.49,2.9-8.59-.74-1.69,9.37-7.55,10.69-.73.17-3.66,2.77-.26,4.29,7.23,3.21,1.3,6-.84,5.45-5.84-1.59-8.19.12-10.06,5.51-1.94,5.59-7,6.07-12.19,5.3-3.59-.53-7.44-.78-10.4.75v25.57a15.26,15.26,0,0,1,4.93,2c-.66,3.1-2.74,4.31-4.93,5.13V676.68c19.61,4.53,39.67,5.52,59.65,7.16,2.94.25,6.27-.07,8,2.5,8,11.63,19.12,18.43,32.52,22.11,1.85.51,5.76.77,4.24,4.22-2.65,6,1,10,3,14.88,1.82,4.36,2.47,10.18-5,10.59-9.47.53-9.1,6.72-8.66,13.44.18,2.91,3.62,4.84,2.14,8.15-5.93,3.94-13.17-.24-21.91,3.73,10,5.64,4.67,13.37,3.68,19.62-2.06,13-3,12.83,11.65,18,5.42,1.92,12.7,1,7.76,10.51-1.41,2.72,1,5.56,3.52,7.34a36.68,36.68,0,0,0,14.5,6.54c16.65,3.25,33.5,6,49.77,10.67,1.82.53,3.65,1,5.48,1.46-6,8.13-10.74,16.48-11.47,25.47-.3,3.65-1,7.63,1.12,10.43,3.81-.32,3.36-4.59,6.35-4.21,0,2.7.5,5.4,0,7.87-1.81,9.14,6,14.43,7.41,22.24.4,2.18,2.13,1.44,3.37.89,1.9-.82,3.25-2.21,3-4.66-.64-5.27-4.31-11,2.56-17.88.94,9.91,1,17.29,2.49,24.31.37,1.7.76,3.49,1.22,5.29H1256.21c-6.18-4.27-11.91-9.42-19.77-10.44-5.24-.67-7.67-3.9-6.22-9.44.64-2.46-.49-4-2.32-4.14-7.43-.67-8.62-8-12.5-12.31-1-1.16-.76-3.32-2.69-4.37a32.48,32.48,0,0,1-4.07-2.68c1.66-3-.33-3.75-6.76-5.51a29,29,0,0,0-6.92-4.17,6.57,6.57,0,0,1-.29-.71,6.75,6.75,0,0,1,3.86-2.12c2.06.24,4.86,2,5.86-.32,0-.07.07-.13.1-.21a7.33,7.33,0,0,0,5.51-2.67,9.14,9.14,0,0,0-.26-1.06c1.6-.09,3.3.21,4.88.12,6.48-.39,13-.37,19.44-.74,6-.34,12.24-.15,16.2-6.47,2.31-3.67,6.18-3.72,9.75-4.15,4-.49,9.66,4.31,11-4.26.06-.36,2.65-.53,4-.51,1.79,0,3.78.77,4.12-2.14.25-2.23-1.2-3.41-2.72-4.39-2.39-1.55-7.23-.75-7.4-3.66-.43-7.71-6-8.89-11-11.46-3-1.55-6.08-4-5-8.52,8.82-.9,16.9,3.77,27.27,1.41l-14.09-8.27c-1.78-4.19,5.8-5.57,1.66-9.25-5.48-4.86-7,2.23-9.55,4.76-2-1.5-2.71-2.88-2.59-4.4.49-6-.18-8.07-6-3.32-3.41,2.78-8.27,3.67-12.48,5.4-.51-2.53-.36-5.54-2.56-7.12-3.47-2.47-8.35-3.66-10.6-6.92-2.07-3,1.23-8.67-2.86-12-.1-.1.18-.69.41-1.48,6.21,2.6,12.49-3.69,19.08-.66-1.72,3.77-5.72,2.81-8,5.29,7.62,1.33,7.5.93,15.2-1.6,4.95-1.62,10.58-3.56,13.27,4.26,1,2.88,11.8,3.55,12,1.45.67-9.57,8.93-6.1,11-5,7,3.56,12.74-1,18.84-1.89,5.18-.8,6.09-5.48,2.55-9.86-3.66-4.54-7.3-8.87-8.76-15-.93-3.94-3.75-6.05-8.86-6-7.53.13-10.44-4.67-8.1-10.67,1.92-4.91,5.65-5.79,12.28-2.89-.88-2.25-1.74-4.5-2.64-6.74-1.14-2.8-1.27-5.34,1.76-7.12-1.09-9,5.71-5.72,10.43-6.54-3-2.78-3.49-8.59-6.78-8.2-8.14,1-14.67-.12-19.19-7.66-.26-.43-2,.3-3,.11-1.62-.3-2.35-1.2-1.57-3.11,2-5-1.38-5.11-4.19-4.07-2,.76-3.56,2.62-5.6.34-6.52-7.3-15-12-22.59-17.79-3.67-2.82-7-5.4-11.19-6.67a3.41,3.41,0,0,0,1.43-2.32c-1.62-.93-3.35-1.81-5-2.87-4.65-3.07-7.11-6.16-7.52-9.27,2.27-1.26,3.81-3.74,5.65-5.83s3.1-5.24,7.36-4.63c-6.6,10.3,4.28,10.54,6.88,15.63,3.42-1.78.12-6.26,3.83-6.74,3.26-.42,4,2,4.22,5a3.19,3.19,0,0,0,4,2.76c3-1,5.26.11,6.37,2.44,2,4.12,5.72,5,9.08,6.92,2.25,1.32,5.44,1.88,6.54,5.24,2.18,6.58,6.93,4.06,11,3.61.79-3.11-.7-4.07-2.2-5.14s-2.58-2.81-1.58-4.78c1.24-2.43,2.88-.73,4.56-.44,2.78.47,5.85.86,8.48.08,2-.59-.43-2.18-.62-3.38l.17.19c-3.3-5.27-11.36,1.39-13.94-5.65,2.65-2.72,6.77-2.35,9.44-5.4,4.07-4.64,6.67-4.18,9.61,1.83,1.58,3.21,4.38,5.35,6.44,3.2,2.36-2.45,6.31-4.64,6.4-8.52.09-4.16-3.6-4.84-6.87-5.47-.56-.11-1-.88-1.9-1.73,1.25-2,1.55-5.33,4.82-5,6.56.59,13.93-1.32,18.75,5.54,1.81,2.58,4.37,3.26,7.41,1.44-.24-3.69-2.53-5.68-4-8.14-1-1.72-3.28-3.59-.58-5.68,1.88-1.46,4.85-2,5.86.12,2,4.11,4.88,3,8.1,2.89A45.86,45.86,0,0,1,1352.5,617c6.93,1.58,14,2.44,21.1,3.45,1.05.15,2.59,1.31,3.34-1.19,1.17-4,1.32-3.79,6-.86,1.5.94,3.44.52,5.21-.7-1.54-6.43-6.43-7.87-11.78-8.65,4.65-5.1,10.69-2.64,15.91-2.62,9.74,0,19-3.66,28.63-3.82a3.47,3.47,0,0,0,3-3.05C1422.7,597.12,1420.52,596.43,1417.8,596.21Z"/></g></g></g></svg>