<svg width="335" height="332" viewBox="0 0 335 332" fill="none" xmlns="http://www.w3.org/2000/svg">
<g filter="url(#filter0_d_2_488)">
<path d="M7.10723 237.142C0.151116 266.687 2.89145 288.66 52.5345 285.545L255.963 265.941C275.92 263.467 277.173 248.163 277.93 238.909L285.858 50.6761C284.777 29.9606 271.88 19.2307 253.576 17.804L234.609 16.3257L215.642 14.8474L173.544 13.8495L131.445 12.8516C99.4381 12.506 80.3407 13.1665 74.7929 13.54C53.4864 15.5328 44.2964 43.668 42.3648 57.4865L7.10723 237.142Z" fill="#6FC22C"/>
<path d="M298.521 99.1055C297.102 78.2444 290.849 64.2502 258.874 75.8475L129.232 127.89C116.625 133.36 118.904 143.714 120.282 149.975L153.224 275.89C158.132 289.372 168.778 293.984 181.089 291.41L193.847 288.743L206.604 286.075L234.457 278.646L262.311 271.216C283.404 265.295 295.813 261.189 299.382 259.876C312.972 254.465 313.306 234.107 311.774 224.604L298.521 99.1055Z" fill="#6FC22C"/>
<path d="M7.48167 275.357C2.54539 307.053 7.48166 329.976 61.1994 322.618L280.716 285.262C302.203 281.017 302.203 264.792 302.203 254.981L294.073 56.0335C291.053 34.2992 276.07 24.0547 256.035 24.0547H235.274H214.513L168.635 26.4602L122.757 28.8657C87.913 31.1296 67.2003 33.3936 61.1994 34.2426C38.2024 38.0914 30.7109 68.4854 29.8398 83.2013L7.48167 275.357Z" fill="white"/>
</g>
<defs>
<filter id="filter0_d_2_488" x="0.287109" y="12.7546" width="316.109" height="319.245" filterUnits="userSpaceOnUse" color-interpolation-filters="sRGB">
<feFlood flood-opacity="0" result="BackgroundImageFix"/>
<feColorMatrix in="SourceAlpha" type="matrix" values="0 0 0 0 0 0 0 0 0 0 0 0 0 0 0 0 0 0 127 0" result="hardAlpha"/>
<feOffset dy="4"/>
<feGaussianBlur stdDeviation="2"/>
<feComposite in2="hardAlpha" operator="out"/>
<feColorMatrix type="matrix" values="0 0 0 0 0 0 0 0 0 0 0 0 0 0 0 0 0 0 0.25 0"/>
<feBlend mode="normal" in2="BackgroundImageFix" result="effect1_dropShadow_2_488"/>
<feBlend mode="normal" in="SourceGraphic" in2="effect1_dropShadow_2_488" result="shape"/>
</filter>
</defs>
</svg>
